<svg xmlns="http://www.w3.org/2000/svg" width="240" height="36.923" viewBox="0 0 240 36.923">
  <g id="logo" transform="translate(-578.569 -433.518)">
    <g id="グループ_1" data-name="グループ 1" transform="translate(627.341 442.908)">
      <path id="パス_1" data-name="パス 1" d="M481.722,482.512l-11.264,15.542v2.024h14.388v-2.1h-11.6l11.292-15.565v-2H471.4v2.1Zm9.912-.025h8.04v-2.076H489.3v19.667h10.984V498h-8.652v-7.041H498.8v-2h-7.169ZM515.5,500.078h2.562c-.782-1.71-1.259-2.613-2.063-4.344s-1.959-4.569-3.19-5.027a4.871,4.871,0,0,0,3.688-5.1c0-4.378-3.352-5.2-7.4-5.2h-4.532v19.667h2.227v-8.4h3.355c1.79,0,3.524,4.185,4.014,5.362S515.022,498.932,515.5,500.078Zm-4.716-10.344h-3.993v-7.275h2.537c2.893,0,4.841.717,4.841,3.407A3.66,3.66,0,0,1,510.786,489.734Zm10.4.485c0,6.427,3.249,10.346,9.062,10.346,6.861,0,9.091-5.222,9.091-10.346,0-5.351-2.433-10.27-9.091-10.27-6.685,0-9.062,4.919-9.062,10.245Zm2.5-.025c0-5.12,2.1-8.142,6.558-8.142s6.558,2.994,6.558,8.142c0,5.887-2.715,8.247-6.558,8.247-3.66,0-6.558-2.2-6.558-8.222Zm40.154-8.4.844,18.287h1.128l-.971-19.667h-1.484l-7.225,17.642-6.915-17.642h-1.431l-1.049,19.667h1.049l.92-18.208,6.915,17.668h.949Zm9.141-.381h8.785v-1h-9.861v19.667h10.552v-1h-9.476v-8.706h7.938v-1h-7.938Zm14.161-1v19.667H591.4c7.372,0,10.366-3.15,10.366-9.832,0-6.915-3.225-9.835-10.344-9.835Zm13.47,9.835c0,6.658-3.358,8.833-9.217,8.833H588.25V481.411H591.4c5.887,0,9.217,2.174,9.217,8.808Zm7.756-9.835h-1.1v19.667h1.1Zm5.531,10.114c0,5.661,2.229,9.911,8.6,9.911a15.557,15.557,0,0,0,5.483-1.052l-.178-1a15.308,15.308,0,0,1-5.252,1.025c-5.864,0-7.5-4.429-7.5-8.887,0-4.608,1.462-9.578,7.45-9.578a13.512,13.512,0,0,1,4.992,1.027l.207-.976a13.423,13.423,0,0,0-5.246-1.05c-6.508,0-8.557,4.84-8.557,10.552Zm16.492,9.553h1.127l2.562-6.709h8.807l2.586,6.709h1.179L639,480.412h-.948Zm4-7.632,4.1-10.728,4.1,10.728Zm17.387-12.034h-1.1v19.667h11.01v-1h-9.909Z" transform="translate(-470.458 -479.949)" fill="#393939"/>
    </g>
    <path id="パス_2" data-name="パス 2" d="M544.021,435.422a1.137,1.137,0,0,0-.75-1.84c-.3-.035-.6-.058-.894-.064H521.8a8.3,8.3,0,0,0-8.184,8.277V462.16a8.2,8.2,0,0,0,2.592,6,1.13,1.13,0,0,0,.86.311,1.143,1.143,0,0,0,.809-.423Z" transform="translate(64.956)" fill="#da3915"/>
    <path id="パス_3" data-name="パス 3" d="M548.926,436.86a1.138,1.138,0,0,0-1.8-.028l-25.415,31.781a1.136,1.136,0,0,0,.888,1.845h19.706a8.358,8.358,0,0,0,7.9-5.82,8.247,8.247,0,0,0,.374-2.461V441.813A8.185,8.185,0,0,0,548.926,436.86Z" transform="translate(64.907 -0.018)" fill="#da3915"/>
  </g>
</svg>
